Coordinates
version=1
nRows=54
nColumns=12
inDegrees=yes

Units are S.I. units (second, meters, Newtons, ...)
Angles are in degrees

endheader
time	SC_y	SC_z	SC_x	AC_y	AC_z	AC_x	GH_y	GH_z	GH_yy	EL_x	PS_y
       0.0              -34.15          33.28          7.067          39.32         -7.097          9.281          155.8          3.613         -15.45          45.68          116.4
   0.01651              -34.15          33.28          7.075          39.32         -7.098          9.279          155.7          3.613         -15.43          45.68          116.4
   0.03303              -34.15          33.28          7.084          39.32         -7.099          9.277          155.7          3.613         -15.42          45.69          116.4
   0.04954              -34.15          33.28          7.094          39.31           -7.1          9.275          155.7          3.613          -15.4          45.69          116.4
   0.06606              -34.15          33.28          7.104          39.31         -7.102          9.273          155.7          3.613         -15.38          45.69          116.4
   0.08257              -34.15          33.28          7.114          39.31         -7.103           9.27          155.6          3.613         -15.37          45.69          116.4
   0.09908              -34.15          33.28          7.126          39.31         -7.105          9.268          155.6          3.613         -15.35           45.7          116.3
    0.1156              -34.15          33.28          7.138          39.31         -7.106          9.265          155.6          3.614         -15.33           45.7          116.3
    0.1321              -34.15          33.28          7.151          39.31         -7.108          9.262          155.6          3.614          -15.3           45.7          116.3
    0.1486              -34.15          33.27          7.165          39.31          -7.11          9.259          155.5          3.614         -15.28          45.71          116.3
    0.1651              -34.16          33.27           7.18          39.31         -7.112          9.256          155.5          3.614         -15.25          45.71          116.3
    0.1817              -34.16          33.27          7.196          39.31         -7.114          9.253          155.4          3.614         -15.23          45.71          116.3
    0.1982              -34.16          33.27          7.213          39.31         -7.116          9.249          155.4          3.614          -15.2          45.72          116.2
    0.2147              -34.16          33.27          7.232          39.31         -7.119          9.245          155.3          3.614         -15.17          45.72          116.2
    0.2312              -34.16          33.27          7.252          39.31         -7.122           9.24          155.3          3.614         -15.13          45.73          116.2
    0.2477              -34.16          33.26          7.274           39.3         -7.125          9.236          155.2          3.614         -15.09          45.73          116.2
    0.2642              -34.17          33.26          7.298           39.3         -7.128           9.23          155.2          3.614         -15.05          45.74          116.1
    0.2807              -34.17          33.26          7.324           39.3         -7.131          9.225          155.1          3.615         -15.01          45.74          116.1
    0.2972              -34.17          33.26          7.353           39.3         -7.135          9.219          155.0          3.615         -14.96          45.75          116.1
    0.3138              -34.17          33.25          7.384           39.3         -7.139          9.212          155.0          3.615         -14.91          45.76          116.0
    0.3303              -34.17          33.25          7.418           39.3         -7.144          9.204          154.9          3.615         -14.85          45.77          116.0
    0.3468              -34.18          33.25          7.456          39.29         -7.149          9.196          154.8          3.615         -14.78          45.78          115.9
    0.3633              -34.18          33.24          7.498          39.29         -7.155          9.187          154.7          3.616         -14.71          45.79          115.9
    0.3798              -34.18          33.24          7.544          39.29         -7.161          9.177          154.6          3.616         -14.64           45.8          115.8
    0.3963              -34.19          33.23          7.595          39.29         -7.168          9.166          154.4          3.616         -14.55          45.81          115.8
    0.4128              -34.19          33.23          7.652          39.28         -7.175          9.153          154.3          3.616         -14.45          45.82          115.7
    0.4294               -34.2          33.22          7.716          39.28         -7.184           9.14          154.1          3.617         -14.34          45.84          115.6
    0.4459               -34.2          33.22          7.788          39.27         -7.193          9.124          153.9          3.617         -14.22          45.85          115.5
    0.4624              -34.21          33.21           7.87          39.27         -7.204          9.106          153.7          3.618         -14.08          45.87          115.4
    0.4789              -34.22           33.2          7.962          39.26         -7.217          9.086          153.5          3.618         -13.92           45.9          115.3
    0.4954              -34.22          33.19          8.068          39.26         -7.231          9.063          153.2          3.619         -13.74          45.92          115.2
    0.5119              -34.23          33.18          8.189          39.25         -7.247          9.037          152.9          3.619         -13.54          45.95          115.0
    0.5284              -34.24          33.17          8.329          39.24         -7.266          9.006          152.5           3.62          -13.3          45.98          114.8
     0.545              -34.26          33.15          8.492          39.23         -7.288          8.971          152.1          3.621         -13.02          46.02          114.6
    0.5615              -34.27          33.13          8.682          39.22         -7.313           8.93          151.6          3.622          -12.7          46.07          114.4
     0.578              -34.29          33.11          8.906          39.21         -7.343          8.881          151.1          3.623         -12.32          46.12          114.1
    0.5945              -34.31          33.09          9.173          39.19         -7.379          8.823          150.4          3.625         -11.87          46.19          113.8
     0.611              -34.33          33.06          9.492          39.17         -7.421          8.754          149.6          3.626         -11.33          46.26          113.4
    0.6275              -34.36          33.02          9.878          39.15         -7.473           8.67          148.6          3.629         -10.67          46.36          112.9
     0.644               -34.4          32.98          10.35          39.12         -7.536          8.567          147.4          3.631         -9.867          46.47          112.3
    0.6606              -34.44          32.93          10.93          39.09         -7.614           8.44          145.9          3.634         -8.877          46.61          111.6
    0.6771               -34.5          32.86          11.66          39.05         -7.712          8.282          144.0          3.638         -7.643          46.78          110.7
    0.6936              -34.57          32.78          12.57          38.99         -7.834          8.083          141.7          3.643         -6.088           47.0          109.5
    0.7101              -34.66          32.67          13.74          38.92          -7.99           7.83          138.7           3.65         -4.111          47.28          108.0
    0.7266              -34.77          32.53          15.23          38.84         -8.189          7.507          134.9          3.658         -1.581          47.64          106.2
    0.7431              -34.92          32.35          17.14          38.72         -8.445          7.091          130.0          3.668          1.666          48.09          103.8
    0.7596              -35.11          32.13          19.58          38.58         -8.772          6.561          123.8          3.682          5.814          48.68          100.7
    0.7762              -35.34          31.85          22.65           38.4         -9.183          5.893          116.0          3.698          11.03          49.41          96.87
    0.7927              -35.63           31.5          26.39          38.18         -9.683           5.08          106.4          3.719          17.38          50.31          92.18
    0.8092              -35.96           31.1          30.72          37.92         -10.26          4.138          95.34          3.743          24.75          51.35          86.74
    0.8257              -36.32          30.67          35.42          37.65         -10.89          3.117          83.35          3.768          32.73          52.47          80.86
    0.8422              -36.68          30.24          40.11          37.37         -11.52          2.097          71.36          3.794           40.7           53.6          74.97
    0.8587              -37.02          29.84          44.45          37.12          -12.1          1.154          60.29          3.818          48.07          54.64          69.53
    0.8752               -37.3          29.49          48.19          36.89          -12.6         0.3409          50.74          3.838          54.42          55.53          64.84
